 <svg  version="1.0" xmlns="http://www.w3.org/2000/svg"  width="300.000000pt" height="300.000000pt" viewBox="0 0 300.000000 300.000000"  preserveAspectRatio="xMidYMid meet">  <g transform="translate(0.000000,300.000000) scale(0.100000,-0.100000)" fill="#705cb4" stroke="none"> <path d="M1420 2330 c-168 -29 -394 -195 -492 -361 -35 -59 -50 -98 -93 -244 -10 -33 -46 -123 -80 -200 -113 -254 -125 -311 -123 -609 0 -119 -1 -218 -3 -221 -3 -2 -81 -5 -174 -6 -94 -1 -186 -4 -205 -7 l-35 -6 40 -7 c22 -4 71 -8 109 -8 60 -1 67 -3 56 -16 -10 -13 -9 -15 12 -15 14 0 40 -5 58 -11 l32 -12 -28 -22 -27 -22 24 -17 c26 -18 150 -60 212 -71 79 -15 23 -15 -164 0 -107 8 -214 15 -239 14 -42 -1 -43 -1 -16 -9 59 -18 304 -41 609 -56 341 -18 1014 -15 1352 5 201 12 434 37 480 50 28 9 28 9 -15 10 -46 1 -281 -14 -379 -24 -30 -3 -53 -3 -50 -1 3 3 42 16 86 29 83 24 133 49 133 68 0 5 -18 18 -41 28 -53 24 -39 32 67 39 69 4 82 7 73 18 -9 12 -1 14 47 15 71 0 156 15 112 19 -16 1 -32 4 -38 5 -5 1 -71 3 -145 4 l-134 1 47 63 c54 71 90 147 98 209 12 90 -73 178 -170 178 -23 0 -61 -9 -84 -20 l-44 -20 -19 23 c-23 28 -23 25 1 72 24 46 27 130 6 179 -16 38 -61 73 -105 82 -35 7 -36 12 -19 49 10 22 17 25 37 21 73 -17 91 -18 91 -7 0 7 -4 9 -10 6 -12 -8 -93 14 -101 27 -4 5 -20 -19 -36 -54 l-30 -64 -74 1 c-59 1 -81 6 -109 24 l-35 23 35 -7 c19 -4 59 -9 88 -12 30 -3 52 -10 52 -16 0 -7 18 21 40 61 45 80 48 82 139 57 30 -8 50 -10 45 -5 -5 4 -36 15 -69 24 -70 18 -81 12 -121 -66 -24 -47 -25 -48 -71 -48 -26 0 -66 7 -89 16 -36 14 -42 20 -40 41 2 20 17 31 72 58 106 51 134 94 134 205 0 82 -24 143 -74 187 -31 28 -46 53 -59 95 -10 32 -32 76 -50 99 -95 124 -307 192 -497 159z m243 -36 c78 -20 147 -55 197 -100 41 -37 90 -124 90 -158 0 -19 -3 -18 -25 9 -21 25 -26 28 -35 15 -6 -10 -10 -11 -10 -2 0 6 -5 12 -10 12 -7 0 -7 -6 0 -20 10 -19 8 -20 -48 -20 -70 0 -155 -21 -222 -55 -71 -36 -62 -39 13 -5 120 54 270 65 353 24 21 -11 52 -38 69 -62 25 -37 30 -55 33 -117 5 -85 -8 -132 -44 -166 -22 -20 -35 -24 -87 -23 -34 1 -83 4 -109 9 -46 7 -46 8 -36 37 13 38 2 49 -12 12 -26 -69 -118 -124 -207 -124 -61 0 -99 26 -131 91 -18 36 -21 38 -27 19 -4 -12 -21 -30 -38 -42 l-32 -20 33 6 c19 3 32 1 32 -5 0 -6 -4 -7 -10 -4 -5 3 -10 -1 -10 -10 0 -9 5 -13 10 -10 6 3 10 1 10 -5 0 -6 17 -28 38 -50 46 -46 82 -55 191 -47 42 3 84 1 92 -4 9 -6 -3 -9 -39 -9 -50 0 -53 -1 -58 -30 -9 -42 -58 -54 -214 -54 l-125 1 60 -13 c33 -7 78 -13 100 -14 62 -1 88 -10 74 -26 -9 -12 -3 -14 40 -14 48 0 52 -2 49 -22 -6 -45 -129 -47 -198 -3 -20 13 -81 42 -136 65 -54 23 -135 60 -179 82 -44 22 -75 35 -70 30 18 -19 158 -90 240 -123 80 -31 155 -67 155 -73 0 -1 -25 -1 -57 2 -35 3 -76 15 -111 33 -30 16 -66 29 -81 28 -22 0 -20 -2 14 -13 22 -7 56 -21 74 -31 l35 -18 -42 -21 c-23 -12 -49 -33 -59 -46 l-16 -25 24 21 c54 48 105 54 267 34 66 -9 93 -8 139 4 51 13 67 14 128 1 55 -12 76 -21 98 -46 19 -20 26 -36 21 -47 -3 -10 -6 -33 -5 -52 3 -68 -47 -116 -154 -150 -61 -19 -64 -25 -15 -30 l45 -6 -40 -18 c-63 -28 -245 -55 -245 -36 0 5 7 10 15 10 8 0 15 5 15 10 0 6 -23 10 -51 10 -27 0 -48 4 -45 9 5 8 -117 27 -151 24 -7 0 -13 3 -13 8 0 5 -7 9 -15 9 -9 0 -39 11 -68 25 l-52 26 29 -26 c38 -34 26 -43 -26 -19 -85 38 -161 125 -184 214 l-13 45 0 -48 c-1 -65 19 -105 90 -176 63 -63 141 -103 271 -138 66 -19 300 -25 364 -11 l30 7 12 -111 c7 -61 11 -112 9 -114 -1 -2 -43 -10 -92 -19 -74 -12 -116 -13 -240 -5 -82 6 -244 14 -360 20 -254 11 -292 16 -304 38 -5 9 -8 139 -6 287 2 314 4 320 111 571 35 84 64 158 64 165 0 23 16 -4 29 -49 7 -24 14 -42 17 -39 2 2 0 16 -6 31 -5 15 -10 55 -10 89 1 237 241 517 510 593 64 18 211 17 283 -2z m212 -693 l70 -19 -55 -6 c-64 -6 -120 -4 -120 6 0 17 13 38 24 37 6 0 43 -8 81 -18z m-131 -22 c-25 -28 -42 -36 -110 -54 -58 -15 -125 -8 -139 15 -3 5 8 4 25 -2 50 -17 124 -5 177 30 57 36 73 40 47 11z m36 -66 c0 -8 -25 -9 -70 -5 -9 1 -3 9 15 20 24 15 32 16 42 6 7 -7 13 -16 13 -21z m22 15 c-7 -7 -12 -8 -12 -2 0 6 3 14 7 17 3 4 9 5 12 2 2 -3 -1 -11 -7 -17z m69 -11 c-10 -9 -11 -8 -5 6 3 10 9 15 12 12 3 -3 0 -11 -7 -18z m-81 -66 c-45 -14 -120 -21 -120 -11 0 10 36 17 100 18 35 0 39 -1 20 -7z m144 -16 c21 -22 26 -24 55 -14 25 9 38 9 56 -1 14 -8 44 -11 75 -8 56 6 64 -9 14 -25 -46 -15 -435 -14 -461 1 -39 22 -26 28 47 24 66 -4 72 -2 95 22 33 35 87 36 119 1z m226 5 c0 -5 -6 -10 -14 -10 -8 0 -18 5 -21 10 -3 6 3 10 14 10 12 0 21 -4 21 -10z m67 -42 c48 -53 56 -114 24 -184 -15 -34 -69 -91 -76 -82 -6 6 19 288 25 288 4 0 16 -10 27 -22z m-67 -55 c0 -21 -11 -150 -25 -288 -14 -137 -28 -278 -32 -312 -3 -35 -11 -67 -18 -73 -7 -5 -32 -13 -57 -16 -34 -5 -54 -1 -87 15 -46 24 -101 99 -101 139 0 14 -12 34 -30 49 -16 13 -30 29 -30 34 0 5 15 26 34 46 18 21 41 54 51 73 24 46 32 163 14 196 -18 35 -77 63 -149 71 -37 3 -60 10 -60 18 0 7 -3 26 -6 42 l-6 30 189 -5 c103 -2 213 1 243 6 30 5 58 10 63 11 4 0 7 -16 7 -36z m-553 0 c-4 -3 -7 0 -7 7 0 7 3 10 7 7 3 -4 3 -10 0 -14z m30 -35 c-3 -8 -6 -5 -6 6 -1 11 2 17 5 13 3 -3 4 -12 1 -19z m620 -204 c13 -21 17 -44 15 -98 -2 -39 -5 -80 -8 -91 -4 -17 -3 -17 7 2 9 17 20 22 53 22 78 -1 194 6 200 12 3 3 7 19 10 35 2 16 1 21 -1 12 -5 -22 -63 -26 -63 -5 0 17 21 43 40 50 12 4 11 6 -2 6 -18 1 -44 -21 -64 -55 -10 -16 -14 -17 -25 -6 -12 11 -10 19 8 52 12 22 18 40 13 40 -12 0 -50 -50 -50 -67 0 -9 -5 -11 -12 -7 -9 5 -9 2 1 -9 7 -9 9 -17 3 -17 -16 0 -31 24 -41 66 l-9 39 -1 -38 c-1 -21 4 -47 10 -59 12 -23 8 -31 -14 -22 -22 8 -28 30 -21 75 8 49 41 69 111 69 81 0 143 -55 143 -128 0 -109 -140 -314 -246 -358 -109 -45 -173 28 -130 149 8 20 12 37 9 37 -11 0 -43 -89 -43 -119 0 -23 -3 -32 -10 -25 -7 7 -4 72 9 196 17 164 22 190 45 227 15 22 31 41 36 41 5 0 17 -12 27 -26z m-1076 -192 c-7 -2 -18 1 -23 6 -8 8 -4 9 13 5 13 -4 18 -8 10 -11z m178 -48 c3 -3 -7 -2 -24 2 -16 4 -35 7 -42 7 -7 0 -10 4 -7 8 4 8 62 -5 73 -17z m385 -25 c10 -49 7 -184 -3 -173 -11 11 -33 183 -25 195 10 17 22 8 28 -22z m338 -231 c-42 -42 -336 -33 -350 11 -3 10 3 11 29 5 46 -12 268 -9 299 3 26 11 40 -1 22 -19z"/> <path d="M1868 2113 c7 -3 16 -2 19 1 4 3 -2 6 -13 5 -11 0 -14 -3 -6 -6z"/> <path d="M1024 2038 c-4 -7 -3 -8 4 -4 7 4 12 9 12 12 0 8 -9 4 -16 -8z"/> <path d="M1663 2033 c4 -3 10 -3 14 0 3 4 0 7 -7 7 -7 0 -10 -3 -7 -7z"/> <path d="M1240 2015 c-22 -27 -5 -37 19 -11 19 20 21 26 9 26 -9 0 -21 -7 -28 -15z"/> <path d="M1001 2002 c-5 -9 -12 -35 -15 -57 -7 -47 -2 -39 18 28 15 49 14 60 -3 29z"/> <path d="M1574 1988 c-4 -7 -3 -8 4 -4 12 7 16 16 8 16 -3 0 -8 -5 -12 -12z"/> <path d="M1544 1968 c-4 -7 -3 -8 4 -4 7 4 12 9 12 12 0 8 -9 4 -16 -8z"/> <path d="M1306 1954 c-17 -16 -21 -61 -8 -80 24 -35 75 -13 87 37 12 48 -45 78 -79 43z m24 -19 c0 -8 -7 -15 -15 -15 -16 0 -20 12 -8 23 11 12 23 8 23 -8z"/> <path d="M1960 1915 c0 -8 7 -15 15 -15 9 0 12 6 9 15 -4 8 -10 15 -15 15 -5 0 -9 -7 -9 -15z"/> <path d="M1686 1881 c-3 -5 1 -14 8 -20 16 -13 32 2 21 19 -8 12 -22 13 -29 1z"/> <path d="M1538 1453 c7 -3 16 -2 19 1 4 3 -2 6 -13 5 -11 0 -14 -3 -6 -6z"/> <path d="M1583 1443 c4 -3 10 -3 14 0 3 4 0 7 -7 7 -7 0 -10 -3 -7 -7z"/> <path d="M720 1230 c0 -7 3 -10 7 -7 3 4 3 10 0 14 -4 3 -7 0 -7 -7z"/> <path d="M1425 1215 c-25 -12 -26 -14 -5 -9 28 7 60 23 45 23 -5 0 -23 -6 -40 -14z"/> <path d="M1703 1213 c9 -2 25 -2 35 0 9 3 1 5 -18 5 -19 0 -27 -2 -17 -5z"/> <path d="M711 1148 c-1 -38 3 -68 7 -68 5 0 7 26 5 58 -6 83 -11 87 -12 10z"/> <path d="M1777 1119 c-22 -11 -37 -23 -34 -25 5 -6 87 33 87 41 0 9 -14 4 -53 -16z"/> <path d="M955 1100 c10 -11 20 -20 23 -20 3 0 -3 9 -13 20 -10 11 -20 20 -23 20 -3 0 3 -9 13 -20z"/> <path d="M1785 1073 c-27 -17 -32 -22 -15 -17 25 7 81 45 64 43 -5 0 -27 -12 -49 -26z"/> <path d="M680 958 c0 -29 41 -117 47 -102 4 11 -35 124 -43 124 -2 0 -4 -10 -4 -22z"/> <path d="M1543 933 c4 -3 10 -3 14 0 3 4 0 7 -7 7 -7 0 -10 -3 -7 -7z"/> <path d="M720 730 c0 -5 12 -19 28 -31 15 -12 19 -19 10 -16 -10 4 -18 3 -18 -2 0 -13 92 -50 141 -56 l44 -5 -30 14 c-16 9 -38 15 -47 16 -10 0 -18 7 -18 15 0 8 -5 15 -11 15 -6 0 -31 13 -55 30 -24 16 -44 25 -44 20z"/> <path d="M1840 1419 c0 -5 5 -7 10 -4 6 3 10 8 10 11 0 2 -4 4 -10 4 -5 0 -10 -5 -10 -11z"/> <path d="M2249 2075 c-54 -29 -60 -107 -12 -145 60 -47 143 -8 143 67 -1 75 -66 114 -131 78z m96 -30 c30 -30 31 -54 4 -89 -29 -36 -80 -36 -109 1 -55 70 42 151 105 88z"/> <path d="M2250 2017 c0 -10 8 -17 18 -17 9 0 13 4 7 8 -5 4 -13 11 -17 16 -5 5 -8 2 -8 -7z"/> <path d="M2325 1640 c-8 -14 3 -30 21 -30 8 0 14 9 14 20 0 21 -24 28 -35 10z"/> <path d="M2425 1474 c-25 -25 -16 -75 17 -93 25 -14 29 -14 55 5 34 26 40 48 19 79 -19 29 -66 34 -91 9z m75 -19 c18 -21 -2 -65 -29 -65 -22 0 -51 25 -51 44 0 34 57 49 80 21z"/> <path d="M2440 1441 c0 -6 9 -9 19 -8 11 0 17 5 15 9 -7 11 -34 10 -34 -1z"/> </g> </svg> 